<?xml version="1.0" encoding="UTF-8" standalone="no"?>
<!DOCTYPE svg PUBLIC "-//W3C//DTD SVG 1.1//EN"
 "http://www.w3.org/Graphics/SVG/1.1/DTD/svg11.dtd">
<!-- Generated by graphviz version 15.1.0 (20260618.0150)
 -->
<!-- Title: lld Pages: 1 -->
<svg width="1181pt" height="1010pt"
 viewBox="0.00 0.00 1181.00 1010.00" xmlns="http://www.w3.org/2000/svg" xmlns:xlink="http://www.w3.org/1999/xlink">
<g id="graph0" class="graph" transform="scale(1 1) rotate(0) translate(28.8 981.55)">
<title>lld</title>
<polygon fill="white" stroke="none" points="-28.8,28.8 -28.8,-981.55 1152.05,-981.55 1152.05,28.8 -28.8,28.8"/>
<text xml:space="preserve" text-anchor="middle" x="561.62" y="-901.85" font-family="Helvetica,sans-Serif" font-weight="bold" font-size="22.00">cart&#45;lib — Class diagram (embeddable in&#45;process cart)</text>
<g id="clust1" class="cluster">
<title>cluster_core</title>
<path fill="#eaf2fb" stroke="#bbbbbb" d="M357,-8C357,-8 888,-8 888,-8 894,-8 900,-14 900,-20 900,-20 900,-682.25 900,-682.25 900,-688.25 894,-694.25 888,-694.25 888,-694.25 357,-694.25 357,-694.25 351,-694.25 345,-688.25 345,-682.25 345,-682.25 345,-20 345,-20 345,-14 351,-8 357,-8"/>
<text xml:space="preserve" text-anchor="middle" x="519.88" y="-677.9" font-family="Helvetica,sans-Serif" font-weight="bold" font-size="13.00">cart&#45;lib &#160;· &#160;com.petstore.cart &#160;(framework&#45;free library)</text>
</g>
<g id="clust2" class="cluster">
<title>cluster_sdk</title>
<path fill="#e9f2fa" stroke="#bbbbbb" d="M20,-23.75C20,-23.75 325,-23.75 325,-23.75 331,-23.75 337,-29.75 337,-35.75 337,-35.75 337,-371.12 337,-371.12 337,-377.12 331,-383.12 325,-383.12 325,-383.12 20,-383.12 20,-383.12 14,-383.12 8,-377.12 8,-371.12 8,-371.12 8,-35.75 8,-35.75 8,-29.75 14,-23.75 20,-23.75"/>
<text xml:space="preserve" text-anchor="middle" x="172.38" y="-366.77" font-family="Helvetica,sans-Serif" font-weight="bold" font-size="13.00">Reused client SDK &#160;· &#160;com.petstore.catalog.client</text>
</g>
<g id="clust3" class="cluster">
<title>cluster_host</title>
<path fill="#ededed" stroke="#bbbbbb" d="M415,-735C415,-735 884,-735 884,-735 890,-735 896,-741 896,-747 896,-747 896,-876.25 896,-876.25 896,-882.25 890,-888.25 884,-888.25 884,-888.25 415,-888.25 415,-888.25 409,-888.25 403,-882.25 403,-876.25 403,-876.25 403,-747 403,-747 403,-741 409,-735 415,-735"/>
<text xml:space="preserve" text-anchor="middle" x="561.38" y="-871.9" font-family="Helvetica,sans-Serif" font-weight="bold" font-size="13.00">Host wiring &#160;· &#160;petstore&#45;app&#45;v1 (only consumer)</text>
</g>
<!-- Ops -->
<g id="node1" class="node">
<title>Ops</title>
<polygon fill="#2e8b74" stroke="none" points="429.12,-631.25 429.12,-656.75 654.88,-656.75 654.88,-631.25 429.12,-631.25"/>
<polygon fill="none" stroke="black" points="429.12,-631.25 429.12,-656.75 654.88,-656.75 654.88,-631.25 429.12,-631.25"/>
<text xml:space="preserve" text-anchor="start" x="493.25" y="-639.4" font-family="Helvetica,sans-Serif" font-weight="bold" font-size="13.00" fill="white">CartOperations</text>
<polygon fill="#d6ece4" stroke="none" points="429.12,-609.5 429.12,-631.25 654.88,-631.25 654.88,-609.5 429.12,-609.5"/>
<polygon fill="none" stroke="black" points="429.12,-609.5 429.12,-631.25 654.88,-631.25 654.88,-609.5 429.12,-609.5"/>
<text xml:space="preserve" text-anchor="start" x="480.88" y="-617.7" font-family="Helvetica,sans-Serif" font-style="italic" font-size="9.00">«business logic (legacy port)»</text>
<polygon fill="#fcfcfc" stroke="none" points="429.12,-558.5 429.12,-609.5 654.88,-609.5 654.88,-558.5 429.12,-558.5"/>
<polygon fill="none" stroke="black" points="429.12,-558.5 429.12,-609.5 654.88,-609.5 654.88,-558.5 429.12,-558.5"/>
<text xml:space="preserve" text-anchor="start" x="435.12" y="-596" font-family="Helvetica,sans-Serif" font-size="9.00" fill="#333333">&#45; store: CartStore</text>
<text xml:space="preserve" text-anchor="start" x="435.12" y="-586.25" font-family="Helvetica,sans-Serif" font-size="9.00" fill="#333333">&#45; catalog: CatalogServiceClient</text>
<text xml:space="preserve" text-anchor="start" x="435.12" y="-576.5" font-family="Helvetica,sans-Serif" font-size="9.00" fill="#333333">&#45; LOCALE = &quot;en_US&quot; &#160;(static)</text>
<text xml:space="preserve" text-anchor="start" x="435.12" y="-566.75" font-family="Helvetica,sans-Serif" font-size="9.00" fill="#333333">&#45; MAX_QUANTITY = 999 &#160;(static)</text>
<polygon fill="white" stroke="none" points="429.12,-478.25 429.12,-558.5 654.88,-558.5 654.88,-478.25 429.12,-478.25"/>
<polygon fill="none" stroke="black" points="429.12,-478.25 429.12,-558.5 654.88,-558.5 654.88,-478.25 429.12,-478.25"/>
<text xml:space="preserve" text-anchor="start" x="435.12" y="-545" font-family="Helvetica,sans-Serif" font-size="9.00">+ addItem(cartId, itemId, Integer qty): CartView</text>
<text xml:space="preserve" text-anchor="start" x="435.12" y="-535.25" font-family="Helvetica,sans-Serif" font-size="9.00">+ setQuantity(cartId, itemId, int qty): CartView</text>
<text xml:space="preserve" text-anchor="start" x="435.12" y="-525.5" font-family="Helvetica,sans-Serif" font-size="9.00">+ deleteItem(cartId, itemId): CartView</text>
<text xml:space="preserve" text-anchor="start" x="435.12" y="-515.75" font-family="Helvetica,sans-Serif" font-size="9.00">+ empty(cartId): void</text>
<text xml:space="preserve" text-anchor="start" x="435.12" y="-506" font-family="Helvetica,sans-Serif" font-size="9.00">+ count(cartId): int &#160;(no catalog call)</text>
<text xml:space="preserve" text-anchor="start" x="435.12" y="-496.25" font-family="Helvetica,sans-Serif" font-size="9.00">+ view(cartId): CartView</text>
<text xml:space="preserve" text-anchor="start" x="435.12" y="-486.5" font-family="Helvetica,sans-Serif" font-size="9.00">+ capQuantity(int): int &#160;(private)</text>
<polygon fill="#fffdf0" stroke="none" points="429.12,-457.25 429.12,-478.25 654.88,-478.25 654.88,-457.25 429.12,-457.25"/>
<polygon fill="none" stroke="black" points="429.12,-457.25 429.12,-478.25 654.88,-478.25 654.88,-457.25 429.12,-457.25"/>
<text xml:space="preserve" text-anchor="start" x="435.12" y="-465.5" font-family="Helvetica,sans-Serif" font-size="8.00" fill="#8a6d00">null add RESETS qty=1; qty&lt;=0 removes; qty capped at 999</text>
</g>
<!-- Store -->
<g id="node2" class="node">
<title>Store</title>
<polygon fill="#c97c2f" stroke="none" points="670,-370 670,-395.5 880,-395.5 880,-370 670,-370"/>
<polygon fill="none" stroke="black" points="670,-370 670,-395.5 880,-395.5 880,-370 670,-370"/>
<text xml:space="preserve" text-anchor="start" x="744.25" y="-378.15" font-family="Helvetica,sans-Serif" font-weight="bold" font-size="13.00" fill="white">CartStore</text>
<polygon fill="#fbe7d0" stroke="none" points="670,-348.25 670,-370 880,-370 880,-348.25 670,-348.25"/>
<polygon fill="none" stroke="black" points="670,-348.25 670,-370 880,-370 880,-348.25 670,-348.25"/>
<text xml:space="preserve" text-anchor="start" x="679.75" y="-356.45" font-family="Helvetica,sans-Serif" font-style="italic" font-size="9.00">«in&#45;memory state &#160;implements AutoCloseable»</text>
<polygon fill="#fcfcfc" stroke="none" points="670,-307 670,-348.25 880,-348.25 880,-307 670,-307"/>
<polygon fill="none" stroke="black" points="670,-307 670,-348.25 880,-348.25 880,-307 670,-307"/>
<text xml:space="preserve" text-anchor="start" x="676" y="-334.75" font-family="Helvetica,sans-Serif" font-size="9.00" fill="#333333">&#45; carts: ConcurrentHashMap&lt;String,CartEntry&gt;</text>
<text xml:space="preserve" text-anchor="start" x="676" y="-325" font-family="Helvetica,sans-Serif" font-size="9.00" fill="#333333">&#45; ttl: Duration &#160;(default 15 min)</text>
<text xml:space="preserve" text-anchor="start" x="676" y="-315.25" font-family="Helvetica,sans-Serif" font-size="9.00" fill="#333333">&#45; sweeper: ScheduledExecutorService (daemon)</text>
<polygon fill="white" stroke="none" points="670,-226.75 670,-307 880,-307 880,-226.75 670,-226.75"/>
<polygon fill="none" stroke="black" points="670,-226.75 670,-307 880,-307 880,-226.75 670,-226.75"/>
<text xml:space="preserve" text-anchor="start" x="676" y="-293.5" font-family="Helvetica,sans-Serif" font-size="9.00">+ withCart(cartId, Function op): T</text>
<text xml:space="preserve" text-anchor="start" x="676" y="-283.75" font-family="Helvetica,sans-Serif" font-size="9.00">+ snapshot(cartId): Map&lt;String,Integer&gt;</text>
<text xml:space="preserve" text-anchor="start" x="676" y="-274" font-family="Helvetica,sans-Serif" font-size="9.00">+ remove(cartId): void</text>
<text xml:space="preserve" text-anchor="start" x="676" y="-264.25" font-family="Helvetica,sans-Serif" font-size="9.00">+ evictExpired(): void &#160;(package)</text>
<text xml:space="preserve" text-anchor="start" x="676" y="-254.5" font-family="Helvetica,sans-Serif" font-size="9.00">+ sweepQuietly(): void &#160;(package)</text>
<text xml:space="preserve" text-anchor="start" x="676" y="-244.75" font-family="Helvetica,sans-Serif" font-size="9.00">+ size(): int</text>
<text xml:space="preserve" text-anchor="start" x="676" y="-235" font-family="Helvetica,sans-Serif" font-size="9.00">+ close(): void</text>
<polygon fill="#fffdf0" stroke="none" points="670,-205.75 670,-226.75 880,-226.75 880,-205.75 670,-205.75"/>
<polygon fill="none" stroke="black" points="670,-205.75 670,-226.75 880,-226.75 880,-205.75 670,-205.75"/>
<text xml:space="preserve" text-anchor="start" x="676" y="-214" font-family="Helvetica,sans-Serif" font-size="8.00" fill="#8a6d00">sliding TTL: any touch refreshes lastAccess</text>
</g>
<!-- Ops&#45;&gt;Store -->
<g id="edge1" class="edge">
<title>Ops&#45;&gt;Store</title>
<path fill="none" stroke="#555555" d="M636.1,-453.27C649.97,-438.12 664.29,-422.49 678.22,-407.29"/>
<polygon fill="#555555" stroke="#555555" points="684.64,-400.28 681.2,-410.69 682.08,-403.07 677.88,-407.65 677.88,-407.65 677.88,-407.65 682.08,-403.07 674.56,-404.61 684.64,-400.28"/>
<text xml:space="preserve" text-anchor="middle" x="698.25" y="-422.7" font-family="Helvetica,sans-Serif" font-size="9.00">mutates/reads state</text>
</g>
<!-- View -->
<g id="node4" class="node">
<title>View</title>
<polygon fill="#6b4fa0" stroke="none" points="499.5,-330.25 499.5,-355.75 628.5,-355.75 628.5,-330.25 499.5,-330.25"/>
<polygon fill="none" stroke="black" points="499.5,-330.25 499.5,-355.75 628.5,-355.75 628.5,-330.25 499.5,-330.25"/>
<text xml:space="preserve" text-anchor="start" x="505.5" y="-338.4" font-family="Helvetica,sans-Serif" font-weight="bold" font-size="13.00" fill="white">CartDtos.CartView</text>
<polygon fill="#e9e1f5" stroke="none" points="499.5,-308.5 499.5,-330.25 628.5,-330.25 628.5,-308.5 499.5,-308.5"/>
<polygon fill="none" stroke="black" points="499.5,-308.5 499.5,-330.25 628.5,-330.25 628.5,-308.5 499.5,-308.5"/>
<text xml:space="preserve" text-anchor="start" x="522.38" y="-316.7" font-family="Helvetica,sans-Serif" font-style="italic" font-size="9.00">«record (wire DTO)»</text>
<polygon fill="#fcfcfc" stroke="none" points="499.5,-267.25 499.5,-308.5 628.5,-308.5 628.5,-267.25 499.5,-267.25"/>
<polygon fill="none" stroke="black" points="499.5,-267.25 499.5,-308.5 628.5,-308.5 628.5,-267.25 499.5,-267.25"/>
<text xml:space="preserve" text-anchor="start" x="505.5" y="-295" font-family="Helvetica,sans-Serif" font-size="9.00" fill="#333333">&#45; items: List&lt;CartItemView&gt;</text>
<text xml:space="preserve" text-anchor="start" x="505.5" y="-285.25" font-family="Helvetica,sans-Serif" font-size="9.00" fill="#333333">&#45; subTotal: double</text>
<text xml:space="preserve" text-anchor="start" x="505.5" y="-275.5" font-family="Helvetica,sans-Serif" font-size="9.00" fill="#333333">&#45; count: int &#160;(distinct lines)</text>
<polygon fill="white" stroke="none" points="499.5,-245.5 499.5,-267.25 628.5,-267.25 628.5,-245.5 499.5,-245.5"/>
<polygon fill="none" stroke="black" points="499.5,-245.5 499.5,-267.25 628.5,-267.25 628.5,-245.5 499.5,-245.5"/>
<text xml:space="preserve" text-anchor="start" x="505.5" y="-253.75" font-family="Helvetica,sans-Serif" font-size="9.00">+ empty(): CartView &#160;(static)</text>
</g>
<!-- Ops&#45;&gt;View -->
<g id="edge3" class="edge">
<title>Ops&#45;&gt;View</title>
<path fill="none" stroke="#555555" stroke-dasharray="5,2" d="M550.88,-453.27C553.28,-425.52 555.82,-396.16 558.02,-370.74"/>
<polygon fill="#555555" stroke="#555555" points="558.87,-360.95 562.49,-371.3 558.54,-364.72 558.01,-370.91 558.01,-370.91 558.01,-370.91 558.54,-364.72 553.52,-370.52 558.87,-360.95"/>
<text xml:space="preserve" text-anchor="middle" x="567.25" y="-422.7" font-family="Helvetica,sans-Serif" font-size="9.00">returns</text>
</g>
<!-- ItemView -->
<g id="node5" class="node">
<title>ItemView</title>
<polygon fill="#6b4fa0" stroke="none" points="423,-118.5 423,-144 579,-144 579,-118.5 423,-118.5"/>
<polygon fill="none" stroke="black" points="423,-118.5 423,-144 579,-144 579,-118.5 423,-118.5"/>
<text xml:space="preserve" text-anchor="start" x="429" y="-126.65" font-family="Helvetica,sans-Serif" font-weight="bold" font-size="13.00" fill="white">CartDtos.CartItemView</text>
<polygon fill="#e9e1f5" stroke="none" points="423,-96.75 423,-118.5 579,-118.5 579,-96.75 423,-96.75"/>
<polygon fill="none" stroke="black" points="423,-96.75 423,-118.5 579,-118.5 579,-96.75 423,-96.75"/>
<text xml:space="preserve" text-anchor="start" x="459.38" y="-104.95" font-family="Helvetica,sans-Serif" font-style="italic" font-size="9.00">«record (wire DTO)»</text>
<polygon fill="#fcfcfc" stroke="none" points="423,-45.75 423,-96.75 579,-96.75 579,-45.75 423,-45.75"/>
<polygon fill="none" stroke="black" points="423,-45.75 423,-96.75 579,-96.75 579,-45.75 423,-45.75"/>
<text xml:space="preserve" text-anchor="start" x="429" y="-83.25" font-family="Helvetica,sans-Serif" font-size="9.00" fill="#333333">&#45; itemId, productId, category</text>
<text xml:space="preserve" text-anchor="start" x="429" y="-73.5" font-family="Helvetica,sans-Serif" font-size="9.00" fill="#333333">&#45; productName, attribute: String</text>
<text xml:space="preserve" text-anchor="start" x="429" y="-63.75" font-family="Helvetica,sans-Serif" font-size="9.00" fill="#333333">&#45; quantity: int</text>
<text xml:space="preserve" text-anchor="start" x="429" y="-54" font-family="Helvetica,sans-Serif" font-size="9.00" fill="#333333">&#45; unitCost: double &#160;(= list price)</text>
<polygon fill="white" stroke="none" points="423,-24 423,-45.75 579,-45.75 579,-24 423,-24"/>
<polygon fill="none" stroke="black" points="423,-24 423,-45.75 579,-45.75 579,-24 423,-24"/>
<text xml:space="preserve" text-anchor="start" x="429" y="-32.25" font-family="Helvetica,sans-Serif" font-size="9.00">+ totalCost(): double</text>
</g>
<!-- Ops&#45;&gt;ItemView -->
<g id="edge7" class="edge">
<title>Ops&#45;&gt;ItemView</title>
<path fill="none" stroke="#555555" stroke-dasharray="5,2" d="M426.4,-453.32C413.64,-436.66 402.55,-418.56 395,-399.5 362.64,-317.78 363.33,-283.74 395,-201.75 401.25,-185.57 410.9,-170.25 421.88,-156.35"/>
<polygon fill="#555555" stroke="#555555" points="428.09,-148.83 425.19,-159.4 425.68,-151.74 421.72,-156.54 421.72,-156.54 421.72,-156.54 425.68,-151.74 418.26,-153.67 428.09,-148.83"/>
<text xml:space="preserve" text-anchor="middle" x="437" y="-296.95" font-family="Helvetica,sans-Serif" font-size="9.00">maps ItemDto &#45;&gt; line</text>
</g>
<!-- CatClient -->
<g id="node6" class="node">
<title>CatClient</title>
<polygon fill="#4a7fb5" stroke="none" points="126.75,-320.12 126.75,-345.62 317.25,-345.62 317.25,-320.12 126.75,-320.12"/>
<polygon fill="none" stroke="black" points="126.75,-320.12 126.75,-345.62 317.25,-345.62 317.25,-320.12 126.75,-320.12"/>
<text xml:space="preserve" text-anchor="start" x="154.5" y="-328.27" font-family="Helvetica,sans-Serif" font-weight="bold" font-size="13.00" fill="white">CatalogServiceClient</text>
<polygon fill="#e2eef9" stroke="none" points="126.75,-298.38 126.75,-320.12 317.25,-320.12 317.25,-298.38 126.75,-298.38"/>
<polygon fill="none" stroke="black" points="126.75,-298.38 126.75,-320.12 317.25,-320.12 317.25,-298.38 126.75,-298.38"/>
<text xml:space="preserve" text-anchor="start" x="169.88" y="-306.57" font-family="Helvetica,sans-Serif" font-style="italic" font-size="9.00">«client SDK (RestClient)»</text>
<polygon fill="white" stroke="none" points="126.75,-276.62 126.75,-298.38 317.25,-298.38 317.25,-276.62 126.75,-276.62"/>
<polygon fill="none" stroke="black" points="126.75,-276.62 126.75,-298.38 317.25,-298.38 317.25,-276.62 126.75,-276.62"/>
<text xml:space="preserve" text-anchor="start" x="132.75" y="-284.88" font-family="Helvetica,sans-Serif" font-size="9.00">+ getItem(itemId, locale): Optional&lt;ItemDto&gt;</text>
<polygon fill="#fffdf0" stroke="none" points="126.75,-255.62 126.75,-276.62 317.25,-276.62 317.25,-255.62 126.75,-255.62"/>
<polygon fill="none" stroke="black" points="126.75,-255.62 126.75,-276.62 317.25,-276.62 317.25,-255.62 126.75,-255.62"/>
<text xml:space="preserve" text-anchor="start" x="132.75" y="-263.88" font-family="Helvetica,sans-Serif" font-size="8.00" fill="#8a6d00">reused SDK jar: catalog&#45;service&#45;client</text>
</g>
<!-- Ops&#45;&gt;CatClient -->
<g id="edge2" class="edge">
<title>Ops&#45;&gt;CatClient</title>
<path fill="none" stroke="#555555" d="M421.36,-511.39C378.63,-491.48 332.42,-464.82 297,-431.25 275.85,-411.21 258.85,-383.87 246.41,-359.47"/>
<polygon fill="#555555" stroke="#555555" points="242.07,-350.67 250.53,-357.65 243.75,-354.06 246.5,-359.64 246.5,-359.64 246.5,-359.64 243.75,-354.06 242.46,-361.63 242.07,-350.67"/>
<text xml:space="preserve" text-anchor="middle" x="336" y="-422.7" font-family="Helvetica,sans-Serif" font-size="9.00">resolve price/name</text>
</g>
<!-- Entry -->
<g id="node3" class="node">
<title>Entry</title>
<polygon fill="#6b4fa0" stroke="none" points="677.88,-97.88 677.88,-123.38 872.12,-123.38 872.12,-97.88 677.88,-97.88"/>
<polygon fill="none" stroke="black" points="677.88,-97.88 677.88,-123.38 872.12,-123.38 872.12,-97.88 677.88,-97.88"/>
<text xml:space="preserve" text-anchor="start" x="711.62" y="-106.03" font-family="Helvetica,sans-Serif" font-weight="bold" font-size="13.00" fill="white">CartStore.CartEntry</text>
<polygon fill="#e9e1f5" stroke="none" points="677.88,-76.12 677.88,-97.88 872.12,-97.88 872.12,-76.12 677.88,-76.12"/>
<polygon fill="none" stroke="black" points="677.88,-76.12 677.88,-97.88 872.12,-97.88 872.12,-76.12 677.88,-76.12"/>
<text xml:space="preserve" text-anchor="start" x="729.25" y="-84.33" font-family="Helvetica,sans-Serif" font-style="italic" font-size="9.00">«private static nested»</text>
<polygon fill="#fcfcfc" stroke="none" points="677.88,-44.62 677.88,-76.12 872.12,-76.12 872.12,-44.62 677.88,-44.62"/>
<polygon fill="none" stroke="black" points="677.88,-44.62 677.88,-76.12 872.12,-76.12 872.12,-44.62 677.88,-44.62"/>
<text xml:space="preserve" text-anchor="start" x="683.88" y="-62.62" font-family="Helvetica,sans-Serif" font-size="9.00" fill="#333333">&#45; quantities: LinkedHashMap&lt;String,Integer&gt;</text>
<text xml:space="preserve" text-anchor="start" x="683.88" y="-52.88" font-family="Helvetica,sans-Serif" font-size="9.00" fill="#333333">&#45; lastAccess: Instant (volatile)</text>
</g>
<!-- Store&#45;&gt;Entry -->
<g id="edge4" class="edge">
<title>Store&#45;&gt;Entry</title>
<path fill="none" stroke="#555555" d="M775,-202.05C775,-180.83 775,-159.09 775,-140.2"/>
<polygon fill="#555555" stroke="#555555" points="775,-140.21 771,-134.21 775,-128.21 779,-134.21 775,-140.21"/>
<text xml:space="preserve" text-anchor="middle" x="806.12" y="-171.2" font-family="Helvetica,sans-Serif" font-size="9.00">owns per cartId</text>
</g>
<!-- View&#45;&gt;ItemView -->
<g id="edge5" class="edge">
<title>View&#45;&gt;ItemView</title>
<path fill="none" stroke="#555555" d="M546.95,-241.54C539.59,-216.47 530.88,-186.81 523.04,-160.09"/>
<polygon fill="#555555" stroke="#555555" points="523.02,-160.02 517.49,-155.39 519.64,-148.51 525.17,-153.14 523.02,-160.02"/>
<text xml:space="preserve" text-anchor="middle" x="538.48" y="-171.2" font-family="Helvetica,sans-Serif" font-size="9.00">lines</text>
</g>
<!-- ItemDto -->
<g id="node7" class="node">
<title>ItemDto</title>
<polygon fill="#aaaaaa" stroke="none" points="149.62,-102.75 149.62,-128.25 294.38,-128.25 294.38,-102.75 149.62,-102.75"/>
<polygon fill="none" stroke="black" points="149.62,-102.75 149.62,-128.25 294.38,-128.25 294.38,-102.75 149.62,-102.75"/>
<text xml:space="preserve" text-anchor="start" x="155.62" y="-110.9" font-family="Helvetica,sans-Serif" font-weight="bold" font-size="13.00" fill="white">CatalogDtos.ItemDto</text>
<polygon fill="#f5f5f5" stroke="none" points="149.62,-81 149.62,-102.75 294.38,-102.75 294.38,-81 149.62,-81"/>
<polygon fill="none" stroke="black" points="149.62,-81 149.62,-102.75 294.38,-102.75 294.38,-81 149.62,-81"/>
<text xml:space="preserve" text-anchor="start" x="172.88" y="-89.2" font-family="Helvetica,sans-Serif" font-style="italic" font-size="9.00">«record (SDK contract)»</text>
<polygon fill="#fcfcfc" stroke="none" points="149.62,-39.75 149.62,-81 294.38,-81 294.38,-39.75 149.62,-39.75"/>
<polygon fill="none" stroke="black" points="149.62,-39.75 149.62,-81 294.38,-81 294.38,-39.75 149.62,-39.75"/>
<text xml:space="preserve" text-anchor="start" x="155.62" y="-67.5" font-family="Helvetica,sans-Serif" font-size="9.00" fill="#333333">&#45; itemId, productId, productName</text>
<text xml:space="preserve" text-anchor="start" x="155.62" y="-57.75" font-family="Helvetica,sans-Serif" font-size="9.00" fill="#333333">&#45; category, attribute1..5</text>
<text xml:space="preserve" text-anchor="start" x="155.62" y="-48" font-family="Helvetica,sans-Serif" font-size="9.00" fill="#333333">&#45; listPrice, unitCost: double</text>
</g>
<!-- CatClient&#45;&gt;ItemDto -->
<g id="edge6" class="edge">
<title>CatClient&#45;&gt;ItemDto</title>
<path fill="none" stroke="#555555" stroke-dasharray="5,2" d="M222,-251.73C222,-219.65 222,-177.23 222,-143.2"/>
<polygon fill="#555555" stroke="#555555" points="222,-133.23 226.5,-143.23 222,-137.01 222,-143.23 222,-143.23 222,-143.23 222,-137.01 217.5,-143.23 222,-133.23"/>
<text xml:space="preserve" text-anchor="middle" x="242.25" y="-171.2" font-family="Helvetica,sans-Serif" font-size="9.00">getItem &#45;&gt;</text>
</g>
<!-- Config -->
<g id="node8" class="node">
<title>Config</title>
<polygon fill="#666666" stroke="none" points="674.12,-825.25 674.12,-850.75 875.88,-850.75 875.88,-825.25 674.12,-825.25"/>
<polygon fill="none" stroke="black" points="674.12,-825.25 674.12,-850.75 875.88,-850.75 875.88,-825.25 674.12,-825.25"/>
<text xml:space="preserve" text-anchor="start" x="740.12" y="-833.4" font-family="Helvetica,sans-Serif" font-weight="bold" font-size="13.00" fill="white">CartConfig</text>
<polygon fill="#ededed" stroke="none" points="674.12,-803.5 674.12,-825.25 875.88,-825.25 875.88,-803.5 674.12,-803.5"/>
<polygon fill="none" stroke="black" points="674.12,-803.5 674.12,-825.25 875.88,-825.25 875.88,-803.5 674.12,-803.5"/>
<text xml:space="preserve" text-anchor="start" x="724.75" y="-811.7" font-family="Helvetica,sans-Serif" font-style="italic" font-size="9.00">«@Configuration (host)»</text>
<polygon fill="white" stroke="none" points="674.12,-772 674.12,-803.5 875.88,-803.5 875.88,-772 674.12,-772"/>
<polygon fill="none" stroke="black" points="674.12,-772 674.12,-803.5 875.88,-803.5 875.88,-772 674.12,-772"/>
<text xml:space="preserve" text-anchor="start" x="680.12" y="-790" font-family="Helvetica,sans-Serif" font-size="9.00">+ @Bean(destroyMethod=&quot;close&quot;) cartStore(...)</text>
<text xml:space="preserve" text-anchor="start" x="680.12" y="-780.25" font-family="Helvetica,sans-Serif" font-size="9.00">+ @Bean cartOperations(store, catalog)</text>
<polygon fill="#fffdf0" stroke="none" points="674.12,-751 674.12,-772 875.88,-772 875.88,-751 674.12,-751"/>
<polygon fill="none" stroke="black" points="674.12,-751 674.12,-772 875.88,-772 875.88,-751 674.12,-751"/>
<text xml:space="preserve" text-anchor="start" x="680.12" y="-759.25" font-family="Helvetica,sans-Serif" font-size="8.00" fill="#8a6d00">cart.ttl&#45;minutes / cart.sweep&#45;interval&#45;seconds</text>
</g>
<!-- Config&#45;&gt;Ops -->
<g id="edge9" class="edge">
<title>Config&#45;&gt;Ops</title>
<path fill="none" stroke="#555555" d="M724.16,-747.09C701.76,-723.84 674.55,-695.6 648.07,-668.11"/>
<polygon fill="#555555" stroke="#555555" points="641.47,-661.26 651.65,-665.34 644.09,-663.98 648.41,-668.46 648.41,-668.46 648.41,-668.46 644.09,-663.98 645.17,-671.58 641.47,-661.26"/>
<text xml:space="preserve" text-anchor="middle" x="701.6" y="-703.45" font-family="Helvetica,sans-Serif" font-size="9.00">@Bean</text>
</g>
<!-- Config&#45;&gt;Store -->
<g id="edge8" class="edge">
<title>Config&#45;&gt;Store</title>
<path fill="none" stroke="#555555" d="M775,-747.03C775,-667.28 775,-514.47 775,-410.31"/>
<polygon fill="#555555" stroke="#555555" points="775,-400.34 779.5,-410.34 775,-404.12 775,-410.34 775,-410.34 775,-410.34 775,-404.12 770.5,-410.34 775,-400.34"/>
<text xml:space="preserve" text-anchor="middle" x="790.38" y="-553.33" font-family="Helvetica,sans-Serif" font-size="9.00">@Bean</text>
</g>
<!-- Svc -->
<g id="node9" class="node">
<title>Svc</title>
<polygon fill="#aaaaaa" stroke="none" points="422.62,-814.75 422.62,-840.25 633.38,-840.25 633.38,-814.75 422.62,-814.75"/>
<polygon fill="none" stroke="black" points="422.62,-814.75 422.62,-840.25 633.38,-840.25 633.38,-814.75 422.62,-814.75"/>
<text xml:space="preserve" text-anchor="start" x="490.5" y="-822.9" font-family="Helvetica,sans-Serif" font-weight="bold" font-size="13.00" fill="white">CartService</text>
<polygon fill="#f5f5f5" stroke="none" points="422.62,-793 422.62,-814.75 633.38,-814.75 633.38,-793 422.62,-793"/>
<polygon fill="none" stroke="black" points="422.62,-793 422.62,-814.75 633.38,-814.75 633.38,-793 422.62,-793"/>
<text xml:space="preserve" text-anchor="start" x="473.25" y="-801.2" font-family="Helvetica,sans-Serif" font-style="italic" font-size="9.00">«@Service adapter (host)»</text>
<polygon fill="white" stroke="none" points="422.62,-761.5 422.62,-793 633.38,-793 633.38,-761.5 422.62,-761.5"/>
<polygon fill="none" stroke="black" points="422.62,-761.5 422.62,-793 633.38,-793 633.38,-761.5 422.62,-761.5"/>
<text xml:space="preserve" text-anchor="start" x="428.62" y="-779.5" font-family="Helvetica,sans-Serif" font-size="9.00">+ resolves per&#45;request cartId (CartIdFilter cookie)</text>
<text xml:space="preserve" text-anchor="start" x="428.62" y="-769.75" font-family="Helvetica,sans-Serif" font-size="9.00">+ delegates addItem/set/delete/view/count/empty</text>
</g>
<!-- Svc&#45;&gt;Ops -->
<g id="edge10" class="edge">
<title>Svc&#45;&gt;Ops</title>
<path fill="none" stroke="#555555" d="M530.44,-757.74C531.83,-733.71 533.65,-702.32 535.43,-671.57"/>
<polygon fill="#555555" stroke="#555555" points="535.98,-661.95 539.9,-672.2 535.76,-665.73 535.41,-671.94 535.41,-671.94 535.41,-671.94 535.76,-665.73 530.91,-671.68 535.98,-661.95"/>
<text xml:space="preserve" text-anchor="middle" x="553.58" y="-703.45" font-family="Helvetica,sans-Serif" font-size="9.00">delegates</text>
</g>
<!-- __legend__ -->
<g id="node10" class="node">
<title>__legend__</title>
<polygon fill="#333333" stroke="none" points="916.75,-844.5 916.75,-863.75 1115.25,-863.75 1115.25,-844.5 916.75,-844.5"/>
<polygon fill="none" stroke="black" points="916.75,-844.5 916.75,-863.75 1115.25,-863.75 1115.25,-844.5 916.75,-844.5"/>
<text xml:space="preserve" text-anchor="start" x="998.75" y="-851.25" font-family="Helvetica,sans-Serif" font-weight="bold" font-size="10.00" fill="white">Legend</text>
<polygon fill="#d6ece4" stroke="none" points="916.75,-826.75 916.75,-844.5 934.75,-844.5 934.75,-826.75 916.75,-826.75"/>
<polygon fill="none" stroke="black" points="916.75,-826.75 916.75,-844.5 934.75,-844.5 934.75,-826.75 916.75,-826.75"/>
<polygon fill="none" stroke="black" points="934.75,-826.75 934.75,-844.5 1115.25,-844.5 1115.25,-826.75 934.75,-826.75"/>
<text xml:space="preserve" text-anchor="start" x="938.75" y="-833" font-family="Helvetica,sans-Serif" font-size="9.00">Business logic (CartOperations)</text>
<polygon fill="#fbe7d0" stroke="none" points="916.75,-809 916.75,-826.75 934.75,-826.75 934.75,-809 916.75,-809"/>
<polygon fill="none" stroke="black" points="916.75,-809 916.75,-826.75 934.75,-826.75 934.75,-809 916.75,-809"/>
<polygon fill="none" stroke="black" points="934.75,-809 934.75,-826.75 1115.25,-826.75 1115.25,-809 934.75,-809"/>
<text xml:space="preserve" text-anchor="start" x="938.75" y="-815.25" font-family="Helvetica,sans-Serif" font-size="9.00">In&#45;memory state (CartStore)</text>
<polygon fill="#e9e1f5" stroke="none" points="916.75,-791.25 916.75,-809 934.75,-809 934.75,-791.25 916.75,-791.25"/>
<polygon fill="none" stroke="black" points="916.75,-791.25 916.75,-809 934.75,-809 934.75,-791.25 916.75,-791.25"/>
<polygon fill="none" stroke="black" points="934.75,-791.25 934.75,-809 1115.25,-809 1115.25,-791.25 934.75,-791.25"/>
<text xml:space="preserve" text-anchor="start" x="938.75" y="-797.5" font-family="Helvetica,sans-Serif" font-size="9.00">Framework&#45;free domain / wire records</text>
<polygon fill="#e2eef9" stroke="none" points="916.75,-773.5 916.75,-791.25 934.75,-791.25 934.75,-773.5 916.75,-773.5"/>
<polygon fill="none" stroke="black" points="916.75,-773.5 916.75,-791.25 934.75,-791.25 934.75,-773.5 916.75,-773.5"/>
<polygon fill="none" stroke="black" points="934.75,-773.5 934.75,-791.25 1115.25,-791.25 1115.25,-773.5 934.75,-773.5"/>
<text xml:space="preserve" text-anchor="start" x="938.75" y="-779.75" font-family="Helvetica,sans-Serif" font-size="9.00">Reused client SDK (catalog&#45;service&#45;client)</text>
<polygon fill="#ededed" stroke="none" points="916.75,-755.75 916.75,-773.5 934.75,-773.5 934.75,-755.75 916.75,-755.75"/>
<polygon fill="none" stroke="black" points="916.75,-755.75 916.75,-773.5 934.75,-773.5 934.75,-755.75 916.75,-755.75"/>
<polygon fill="none" stroke="black" points="934.75,-755.75 934.75,-773.5 1115.25,-773.5 1115.25,-755.75 934.75,-755.75"/>
<text xml:space="preserve" text-anchor="start" x="938.75" y="-762" font-family="Helvetica,sans-Serif" font-size="9.00">Host wiring / consumer (petstore&#45;app&#45;v1)</text>
<polygon fill="#f5f5f5" stroke="none" points="916.75,-738 916.75,-755.75 934.75,-755.75 934.75,-738 916.75,-738"/>
<polygon fill="none" stroke="black" points="916.75,-738 916.75,-755.75 934.75,-755.75 934.75,-738 916.75,-738"/>
<polygon fill="none" stroke="black" points="934.75,-738 934.75,-755.75 1115.25,-755.75 1115.25,-738 934.75,-738"/>
<text xml:space="preserve" text-anchor="start" x="938.75" y="-744.25" font-family="Helvetica,sans-Serif" font-size="9.00">Owned by another module</text>
</g>
</g>
</svg>
