<?xml version="1.0" encoding="UTF-8" standalone="no"?>
<!DOCTYPE svg PUBLIC "-//W3C//DTD SVG 1.1//EN"
 "http://www.w3.org/Graphics/SVG/1.1/DTD/svg11.dtd">
<!-- Generated by graphviz version 15.1.0 (20260618.0150)
 -->
<!-- Title: ms Pages: 1 -->
<svg width="996pt" height="788pt"
 viewBox="0.00 0.00 996.00 788.00" xmlns="http://www.w3.org/2000/svg" xmlns:xlink="http://www.w3.org/1999/xlink">
<g id="graph0" class="graph" transform="scale(1 1) rotate(0) translate(4 783.75)">
<title>ms</title>
<polygon fill="white" stroke="none" points="-4,4 -4,-783.75 991.99,-783.75 991.99,4 -4,4"/>
<text xml:space="preserve" text-anchor="start" x="200.74" y="-761.5" font-family="Helvetica,sans-Serif" font-size="15.00">Java Pet Store — Target Microservices (traffic&#45;driven split)</text>
<text xml:space="preserve" text-anchor="start" x="200.74" y="-745.75" font-family="Helvetica,sans-Serif" font-size="15.00">DB&#45;per&#45;service · JWT auth · external JMS broker · solid=HTTP/REST · dashed red=JMS</text>
<!-- client -->
<g id="node1" class="node">
<title>client</title>
<ellipse fill="#ffffff" stroke="#333333" cx="51.62" cy="-425.88" rx="51.62" ry="26.87"/>
<text xml:space="preserve" text-anchor="middle" x="51.62" y="-427.57" font-family="Helvetica,sans-Serif" font-size="14.00">Browser /</text>
<text xml:space="preserve" text-anchor="middle" x="51.62" y="-412.57" font-family="Helvetica,sans-Serif" font-size="14.00">API client</text>
</g>
<!-- gw -->
<g id="node2" class="node">
<title>gw</title>
<path fill="#ededed" stroke="#555555" d="M332.74,-443.88C332.74,-443.88 236.49,-443.88 236.49,-443.88 230.49,-443.88 224.49,-437.88 224.49,-431.88 224.49,-431.88 224.49,-419.88 224.49,-419.88 224.49,-413.88 230.49,-407.88 236.49,-407.88 236.49,-407.88 332.74,-407.88 332.74,-407.88 338.74,-407.88 344.74,-413.88 344.74,-419.88 344.74,-419.88 344.74,-431.88 344.74,-431.88 344.74,-437.88 338.74,-443.88 332.74,-443.88"/>
<text xml:space="preserve" text-anchor="middle" x="284.61" y="-427.43" font-family="Helvetica,sans-Serif" font-size="11.00">API Gateway</text>
<text xml:space="preserve" text-anchor="middle" x="284.61" y="-415.43" font-family="Helvetica,sans-Serif" font-size="11.00">(routing + JWT verify)</text>
</g>
<!-- client&#45;&gt;gw -->
<g id="edge1" class="edge">
<title>client&#45;&gt;gw</title>
<path fill="none" stroke="#333333" stroke-width="1.4" d="M103.6,-425.88C135.59,-425.88 177.3,-425.88 212.52,-425.88"/>
<polygon fill="#333333" stroke="#333333" stroke-width="1.4" points="212.07,-429.38 222.07,-425.88 212.07,-422.38 212.07,-429.38"/>
<text xml:space="preserve" text-anchor="middle" x="163.86" y="-429.07" font-family="Times,serif" font-size="14.00">HTTPS</text>
</g>
<!-- customer -->
<g id="node3" class="node">
<title>customer</title>
<polygon fill="#6b4fa0" stroke="none" points="503.99,-708.75 503.99,-736.25 676.24,-736.25 676.24,-708.75 503.99,-708.75"/>
<polygon fill="none" stroke="black" points="503.99,-708.75 503.99,-736.25 676.24,-736.25 676.24,-708.75 503.99,-708.75"/>
<text xml:space="preserve" text-anchor="start" x="525.24" y="-717.9" font-family="Helvetica,sans-Serif" font-weight="bold" font-size="13.00" fill="white">1 · customer&#45;service</text>
<polygon fill="#e9e1f5" stroke="none" points="503.99,-644.5 503.99,-708.75 676.24,-708.75 676.24,-644.5 503.99,-644.5"/>
<polygon fill="none" stroke="black" points="503.99,-644.5 503.99,-708.75 676.24,-708.75 676.24,-644.5 503.99,-644.5"/>
<text xml:space="preserve" text-anchor="start" x="510.99" y="-694.25" font-family="Helvetica,sans-Serif" font-size="9.00">POST /register</text>
<text xml:space="preserve" text-anchor="start" x="510.99" y="-683" font-family="Helvetica,sans-Serif" font-size="9.00">POST /login → JWT</text>
<text xml:space="preserve" text-anchor="start" x="510.99" y="-673.25" font-family="Helvetica,sans-Serif" font-size="9.00">POST /logout</text>
<text xml:space="preserve" text-anchor="start" x="510.99" y="-663.5" font-family="Helvetica,sans-Serif" font-size="9.00">GET /customer/{id}</text>
<text xml:space="preserve" text-anchor="start" x="510.99" y="-653.75" font-family="Helvetica,sans-Serif" font-size="9.00">PUT /customer/{id}/account|profile|card</text>
<polygon fill="#e9e1f5" stroke="none" points="503.99,-621.5 503.99,-644.5 676.24,-644.5 676.24,-621.5 503.99,-621.5"/>
<polygon fill="none" stroke="black" points="503.99,-621.5 503.99,-644.5 676.24,-644.5 676.24,-621.5 503.99,-621.5"/>
<text xml:space="preserve" text-anchor="start" x="532.74" y="-630.9" font-family="Helvetica,sans-Serif" font-style="italic" font-size="8.00">low&#45;med · PII+card · issues JWT</text>
</g>
<!-- gw&#45;&gt;customer -->
<g id="edge2" class="edge">
<title>gw&#45;&gt;customer</title>
<path fill="none" stroke="#333333" stroke-width="1.4" d="M305.12,-444.37C340.16,-477.33 416.47,-547.9 484.74,-602.88 487.75,-605.3 490.83,-607.74 493.95,-610.19"/>
<polygon fill="#333333" stroke="#333333" stroke-width="1.4" points="491.72,-612.89 501.76,-616.24 496,-607.35 491.72,-612.89"/>
<text xml:space="preserve" text-anchor="middle" x="414.74" y="-567.73" font-family="Times,serif" font-size="8.00">/register /login</text>
</g>
<!-- catalog -->
<g id="node4" class="node">
<title>catalog</title>
<polygon fill="#2e6db4" stroke="none" points="494.24,-557.25 494.24,-584.75 685.99,-584.75 685.99,-557.25 494.24,-557.25"/>
<polygon fill="none" stroke="black" points="494.24,-557.25 494.24,-584.75 685.99,-584.75 685.99,-557.25 494.24,-557.25"/>
<text xml:space="preserve" text-anchor="start" x="531.61" y="-566.4" font-family="Helvetica,sans-Serif" font-weight="bold" font-size="13.00" fill="white">2 · catalog&#45;service</text>
<polygon fill="#dce9f7" stroke="none" points="494.24,-514 494.24,-557.25 685.99,-557.25 685.99,-514 494.24,-514"/>
<polygon fill="none" stroke="black" points="494.24,-514 494.24,-557.25 685.99,-557.25 685.99,-514 494.24,-514"/>
<text xml:space="preserve" text-anchor="start" x="501.24" y="-542.75" font-family="Helvetica,sans-Serif" font-size="9.00">GET / &#160;/category &#160;/product</text>
<text xml:space="preserve" text-anchor="start" x="501.24" y="-533" font-family="Helvetica,sans-Serif" font-size="9.00">GET /item</text>
<text xml:space="preserve" text-anchor="start" x="501.24" y="-523.25" font-family="Helvetica,sans-Serif" font-size="9.00">GET /search</text>
<polygon fill="#dce9f7" stroke="none" points="494.24,-491 494.24,-514 685.99,-514 685.99,-491 494.24,-491"/>
<polygon fill="none" stroke="black" points="494.24,-491 494.24,-514 685.99,-514 685.99,-491 494.24,-491"/>
<text xml:space="preserve" text-anchor="start" x="501.24" y="-500.4" font-family="Helvetica,sans-Serif" font-style="italic" font-size="8.00">~80% traffic · READ&#45;ONLY · cache/CDN · replicas</text>
</g>
<!-- gw&#45;&gt;catalog -->
<g id="edge3" class="edge">
<title>gw&#45;&gt;catalog</title>
<path fill="none" stroke="#333333" stroke-width="1.4" d="M335.73,-444.37C373.61,-458.35 427.12,-478.1 475.21,-495.84"/>
<polygon fill="#333333" stroke="#333333" stroke-width="1.4" points="473.76,-499.04 484.36,-499.22 476.19,-492.47 473.76,-499.04"/>
<text xml:space="preserve" text-anchor="middle" x="414.74" y="-484.02" font-family="Times,serif" font-size="8.00">/ /category /search</text>
</g>
<!-- cart -->
<g id="node5" class="node">
<title>cart</title>
<polygon fill="#c97c2f" stroke="none" points="494.24,-398.12 494.24,-425.62 685.99,-425.62 685.99,-398.12 494.24,-398.12"/>
<polygon fill="none" stroke="black" points="494.24,-398.12 494.24,-425.62 685.99,-425.62 685.99,-398.12 494.24,-398.12"/>
<text xml:space="preserve" text-anchor="start" x="501.24" y="-407.27" font-family="Helvetica,sans-Serif" font-weight="bold" font-size="13.00" fill="white">3 · cart&#45;service (+ checkout)</text>
<polygon fill="#fbe7d0" stroke="none" points="494.24,-345.12 494.24,-398.12 685.99,-398.12 685.99,-345.12 494.24,-345.12"/>
<polygon fill="none" stroke="black" points="494.24,-345.12 494.24,-398.12 685.99,-398.12 685.99,-345.12 494.24,-345.12"/>
<text xml:space="preserve" text-anchor="start" x="501.24" y="-383.62" font-family="Helvetica,sans-Serif" font-size="9.00">GET /cart</text>
<text xml:space="preserve" text-anchor="start" x="501.24" y="-373.88" font-family="Helvetica,sans-Serif" font-size="9.00">POST /cart/set|add|update|delete</text>
<text xml:space="preserve" text-anchor="start" x="501.24" y="-364.12" font-family="Helvetica,sans-Serif" font-size="9.00">POST /checkout</text>
<text xml:space="preserve" text-anchor="start" x="501.24" y="-354.38" font-family="Helvetica,sans-Serif" font-size="9.00">GET /orders/{id}/status</text>
<polygon fill="#fbe7d0" stroke="none" points="494.24,-322.12 494.24,-345.12 685.99,-345.12 685.99,-322.12 494.24,-322.12"/>
<polygon fill="none" stroke="black" points="494.24,-322.12 494.24,-345.12 685.99,-345.12 685.99,-322.12 494.24,-322.12"/>
<text xml:space="preserve" text-anchor="start" x="538.74" y="-331.52" font-family="Helvetica,sans-Serif" font-style="italic" font-size="8.00">med · session (Redis) · sticky</text>
</g>
<!-- gw&#45;&gt;cart -->
<g id="edge4" class="edge">
<title>gw&#45;&gt;cart</title>
<path fill="none" stroke="#333333" stroke-width="1.4" d="M345.21,-415.66C382.06,-409.35 430.57,-401.04 474.61,-393.49"/>
<polygon fill="#333333" stroke="#333333" stroke-width="1.4" points="474.95,-396.99 484.21,-391.85 473.76,-390.09 474.95,-396.99"/>
<text xml:space="preserve" text-anchor="middle" x="414.74" y="-409.72" font-family="Times,serif" font-size="8.00">/cart /checkout</text>
</g>
<!-- inv -->
<g id="node6" class="node">
<title>inv</title>
<polygon fill="#b23a48" stroke="none" points="496.49,-70.25 496.49,-97.75 683.74,-97.75 683.74,-70.25 496.49,-70.25"/>
<polygon fill="none" stroke="black" points="496.49,-70.25 496.49,-97.75 683.74,-97.75 683.74,-70.25 496.49,-70.25"/>
<text xml:space="preserve" text-anchor="start" x="503.49" y="-79.4" font-family="Helvetica,sans-Serif" font-weight="bold" font-size="13.00" fill="white">4 · inventory/admin&#45;service</text>
<polygon fill="#f7d9dc" stroke="none" points="496.49,-27 496.49,-70.25 683.74,-70.25 683.74,-27 496.49,-27"/>
<polygon fill="none" stroke="black" points="496.49,-27 496.49,-70.25 683.74,-70.25 683.74,-27 496.49,-27"/>
<text xml:space="preserve" text-anchor="start" x="503.49" y="-55.75" font-family="Helvetica,sans-Serif" font-size="9.00">GET /admin/orders</text>
<text xml:space="preserve" text-anchor="start" x="503.49" y="-46" font-family="Helvetica,sans-Serif" font-size="9.00">POST /admin/orders/{id}/approve|deny</text>
<text xml:space="preserve" text-anchor="start" x="503.49" y="-36.25" font-family="Helvetica,sans-Serif" font-size="9.00">(inventory reserve, pessimistic lock)</text>
<polygon fill="#f7d9dc" stroke="none" points="496.49,-4 496.49,-27 683.74,-27 683.74,-4 496.49,-4"/>
<polygon fill="none" stroke="black" points="496.49,-4 496.49,-27 683.74,-27 683.74,-4 496.49,-4"/>
<text xml:space="preserve" text-anchor="start" x="552.99" y="-13.4" font-family="Helvetica,sans-Serif" font-style="italic" font-size="8.00">low web · back&#45;office</text>
</g>
<!-- gw&#45;&gt;inv -->
<g id="edge5" class="edge">
<title>gw&#45;&gt;inv</title>
<path fill="none" stroke="#333333" stroke-width="1.4" d="M296.68,-407.43C324.97,-360.94 403.46,-236.23 484.74,-144.88 495.37,-132.93 507.4,-120.93 519.42,-109.7"/>
<polygon fill="#333333" stroke="#333333" stroke-width="1.4" points="521.6,-112.44 526.59,-103.1 516.86,-107.29 521.6,-112.44"/>
<text xml:space="preserve" text-anchor="middle" x="414.74" y="-273.2" font-family="Times,serif" font-size="8.00">/admin</text>
</g>
<!-- db_c -->
<g id="node8" class="node">
<title>db_c</title>
<path fill="#fff3cd" stroke="#b8860b" d="M964.36,-693.6C964.36,-695.41 944.98,-696.88 921.11,-696.88 897.25,-696.88 877.86,-695.41 877.86,-693.6 877.86,-693.6 877.86,-664.15 877.86,-664.15 877.86,-662.34 897.25,-660.88 921.11,-660.88 944.98,-660.88 964.36,-662.34 964.36,-664.15 964.36,-664.15 964.36,-693.6 964.36,-693.6"/>
<path fill="none" stroke="#b8860b" d="M964.36,-693.6C964.36,-691.8 944.98,-690.33 921.11,-690.33 897.25,-690.33 877.86,-691.8 877.86,-693.6"/>
<text xml:space="preserve" text-anchor="middle" x="921.11" y="-680.27" font-family="Helvetica,sans-Serif" font-size="8.00" fill="#b8860b">customer db</text>
<text xml:space="preserve" text-anchor="middle" x="921.11" y="-671.27" font-family="Helvetica,sans-Serif" font-size="8.00" fill="#b8860b">app_user, customer</text>
</g>
<!-- customer&#45;&gt;db_c -->
<g id="edge6" class="edge">
<title>customer&#45;&gt;db_c</title>
<path fill="none" stroke="#b8860b" stroke-width="1.2" d="M684.07,-678.88C742.7,-678.88 816.39,-678.88 865.7,-678.88"/>
<polygon fill="#b8860b" stroke="#b8860b" stroke-width="1.2" points="865.56,-682.38 875.56,-678.88 865.56,-675.38 865.56,-682.38"/>
</g>
<!-- db_cat -->
<g id="node9" class="node">
<title>db_cat</title>
<path fill="#fff3cd" stroke="#b8860b" d="M967.74,-552.6C967.74,-554.41 946.84,-555.88 921.11,-555.88 895.39,-555.88 874.49,-554.41 874.49,-552.6 874.49,-552.6 874.49,-523.15 874.49,-523.15 874.49,-521.34 895.39,-519.88 921.11,-519.88 946.84,-519.88 967.74,-521.34 967.74,-523.15 967.74,-523.15 967.74,-552.6 967.74,-552.6"/>
<path fill="none" stroke="#b8860b" d="M967.74,-552.6C967.74,-550.8 946.84,-549.33 921.11,-549.33 895.39,-549.33 874.49,-550.8 874.49,-552.6"/>
<text xml:space="preserve" text-anchor="middle" x="921.11" y="-539.27" font-family="Helvetica,sans-Serif" font-size="8.00" fill="#b8860b">catalog db</text>
<text xml:space="preserve" text-anchor="middle" x="921.11" y="-530.27" font-family="Helvetica,sans-Serif" font-size="8.00" fill="#b8860b">category/product/item</text>
</g>
<!-- catalog&#45;&gt;db_cat -->
<g id="edge7" class="edge">
<title>catalog&#45;&gt;db_cat</title>
<path fill="none" stroke="#b8860b" stroke-width="1.2" d="M693.86,-537.88C749.53,-537.88 816.25,-537.88 862.75,-537.88"/>
<polygon fill="#b8860b" stroke="#b8860b" stroke-width="1.2" points="862.6,-541.38 872.6,-537.88 862.6,-534.38 862.6,-541.38"/>
</g>
<!-- cart&#45;&gt;catalog -->
<g id="edge12" class="edge">
<title>cart&#45;&gt;catalog</title>
<path fill="none" stroke="#6b4fa0" stroke-width="1.3" stroke-dasharray="5,2" d="M590.11,-429.4C590.11,-444.14 590.11,-460.15 590.11,-475.24"/>
<polygon fill="#6b4fa0" stroke="#6b4fa0" stroke-width="1.3" points="586.61,-475.13 590.11,-485.13 593.61,-475.13 586.61,-475.13"/>
<text xml:space="preserve" text-anchor="middle" x="582.24" y="-455.59" font-family="Times,serif" font-size="8.00" fill="#6b4fa0">REST: resolve item price/name</text>
</g>
<!-- order -->
<g id="node7" class="node">
<title>order</title>
<polygon fill="#2f8f46" stroke="none" points="492.74,-229.25 492.74,-256.75 687.49,-256.75 687.49,-229.25 492.74,-229.25"/>
<polygon fill="none" stroke="black" points="492.74,-229.25 492.74,-256.75 687.49,-256.75 687.49,-229.25 492.74,-229.25"/>
<text xml:space="preserve" text-anchor="start" x="499.74" y="-238.4" font-family="Helvetica,sans-Serif" font-weight="bold" font-size="13.00" fill="white">5 · order&#45;processing&#45;service</text>
<polygon fill="#d8f0dd" stroke="none" points="492.74,-186 492.74,-229.25 687.49,-229.25 687.49,-186 492.74,-186"/>
<polygon fill="none" stroke="black" points="492.74,-186 492.74,-229.25 687.49,-229.25 687.49,-186 492.74,-186"/>
<text xml:space="preserve" text-anchor="start" x="499.74" y="-214.75" font-family="Helvetica,sans-Serif" font-size="9.00">@JmsListener PurchaseOrderQueue</text>
<text xml:space="preserve" text-anchor="start" x="499.74" y="-205" font-family="Helvetica,sans-Serif" font-size="9.00">(no HTTP) fulfilment workflow</text>
<text xml:space="preserve" text-anchor="start" x="499.74" y="-195.25" font-family="Helvetica,sans-Serif" font-size="9.00">InvoiceTopic (pub/sub)</text>
<polygon fill="#d8f0dd" stroke="none" points="492.74,-163 492.74,-186 687.49,-186 687.49,-163 492.74,-163"/>
<polygon fill="none" stroke="black" points="492.74,-163 492.74,-186 687.49,-186 687.49,-163 492.74,-163"/>
<text xml:space="preserve" text-anchor="start" x="525.24" y="-172.4" font-family="Helvetica,sans-Serif" font-style="italic" font-size="8.00">async worker · scale by queue depth</text>
</g>
<!-- cart&#45;&gt;order -->
<g id="edge13" class="edge">
<title>cart&#45;&gt;order</title>
<path fill="none" stroke="#b23a48" stroke-width="2" stroke-dasharray="5,2" d="M590.11,-318.36C590.11,-303.85 590.11,-288.1 590.11,-273.22"/>
<polygon fill="#b23a48" stroke="#b23a48" stroke-width="2" points="593.61,-273.45 590.11,-263.45 586.61,-273.45 593.61,-273.45"/>
<text xml:space="preserve" text-anchor="middle" x="581.86" y="-286.14" font-family="Times,serif" font-size="9.00" fill="#b23a48">JMS PurchaseOrderQueue (PO)</text>
</g>
<!-- db_o -->
<g id="node10" class="node">
<title>db_o</title>
<path fill="#fff3cd" stroke="#b8860b" d="M987.99,-224.6C987.99,-226.41 958.01,-227.88 921.11,-227.88 884.21,-227.88 854.24,-226.41 854.24,-224.6 854.24,-224.6 854.24,-195.15 854.24,-195.15 854.24,-193.34 884.21,-191.88 921.11,-191.88 958.01,-191.88 987.99,-193.34 987.99,-195.15 987.99,-195.15 987.99,-224.6 987.99,-224.6"/>
<path fill="none" stroke="#b8860b" d="M987.99,-224.6C987.99,-222.8 958.01,-221.33 921.11,-221.33 884.21,-221.33 854.24,-222.8 854.24,-224.6"/>
<text xml:space="preserve" text-anchor="middle" x="921.11" y="-211.28" font-family="Helvetica,sans-Serif" font-size="8.00" fill="#b8860b">order db</text>
<text xml:space="preserve" text-anchor="middle" x="921.11" y="-202.28" font-family="Helvetica,sans-Serif" font-size="8.00" fill="#b8860b">purchase_order, line_item, status</text>
</g>
<!-- cart&#45;&gt;db_o -->
<g id="edge8" class="edge">
<title>cart&#45;&gt;db_o</title>
<path fill="none" stroke="#b8860b" stroke-width="1.2" d="M693.86,-322.66C753.68,-292.84 826.24,-256.67 872.79,-233.47"/>
<polygon fill="#b8860b" stroke="#b8860b" stroke-width="1.2" points="874.16,-236.69 881.55,-229.1 871.04,-230.43 874.16,-236.69"/>
<text xml:space="preserve" text-anchor="middle" x="774.86" y="-303.84" font-family="Times,serif" font-size="8.00">writes order at checkout</text>
</g>
<!-- inv&#45;&gt;order -->
<g id="edge15" class="edge">
<title>inv&#45;&gt;order</title>
<path fill="none" stroke="#b23a48" stroke-width="2" stroke-dasharray="5,2" d="M604.21,-101.64C606.89,-121.14 607.42,-130.74 605.79,-146.36"/>
<polygon fill="#b23a48" stroke="#b23a48" stroke-width="2" points="602.35,-145.66 604.59,-156.01 609.29,-146.52 602.35,-145.66"/>
<text xml:space="preserve" text-anchor="middle" x="598.36" y="-127.08" font-family="Times,serif" font-size="9.00" fill="#b23a48">JMS InvoiceTopic</text>
</g>
<!-- inv&#45;&gt;db_o -->
<g id="edge11" class="edge">
<title>inv&#45;&gt;db_o</title>
<path fill="none" stroke="#b8860b" stroke-width="1.2" d="M691.61,-99.44C751.39,-128.34 824.54,-163.68 871.71,-186.48"/>
<polygon fill="#b8860b" stroke="#b8860b" stroke-width="1.2" points="870.07,-189.58 880.6,-190.78 873.12,-183.28 870.07,-189.58"/>
<text xml:space="preserve" text-anchor="middle" x="774.86" y="-160.6" font-family="Times,serif" font-size="8.00">approve/deny status</text>
</g>
<!-- db_i -->
<g id="node11" class="node">
<title>db_i</title>
<path fill="#fff3cd" stroke="#b8860b" d="M950.86,-65.6C950.86,-67.41 937.53,-68.88 921.11,-68.88 904.7,-68.88 891.36,-67.41 891.36,-65.6 891.36,-65.6 891.36,-36.15 891.36,-36.15 891.36,-34.34 904.7,-32.88 921.11,-32.88 937.53,-32.88 950.86,-34.34 950.86,-36.15 950.86,-36.15 950.86,-65.6 950.86,-65.6"/>
<path fill="none" stroke="#b8860b" d="M950.86,-65.6C950.86,-63.8 937.53,-62.33 921.11,-62.33 904.7,-62.33 891.36,-63.8 891.36,-65.6"/>
<text xml:space="preserve" text-anchor="middle" x="921.11" y="-52.27" font-family="Helvetica,sans-Serif" font-size="8.00" fill="#b8860b">inventory db</text>
<text xml:space="preserve" text-anchor="middle" x="921.11" y="-43.27" font-family="Helvetica,sans-Serif" font-size="8.00" fill="#b8860b">inventory</text>
</g>
<!-- inv&#45;&gt;db_i -->
<g id="edge10" class="edge">
<title>inv&#45;&gt;db_i</title>
<path fill="none" stroke="#b8860b" stroke-width="1.2" d="M691.61,-50.88C754.75,-50.88 832.8,-50.88 879.41,-50.88"/>
<polygon fill="#b8860b" stroke="#b8860b" stroke-width="1.2" points="879.3,-54.38 889.3,-50.88 879.3,-47.38 879.3,-54.38"/>
</g>
<!-- order&#45;&gt;inv -->
<g id="edge14" class="edge">
<title>order&#45;&gt;inv</title>
<path fill="none" stroke="#b23a48" stroke-width="2" stroke-dasharray="5,2" d="M590.11,-159.07C590.11,-144.86 590.11,-129.25 590.11,-114.41"/>
<polygon fill="#b23a48" stroke="#b23a48" stroke-width="2" points="593.61,-114.65 590.11,-104.65 586.61,-114.65 593.61,-114.65"/>
<text xml:space="preserve" text-anchor="middle" x="581.86" y="-127.08" font-family="Times,serif" font-size="9.00" fill="#b23a48">JMS reserve stock</text>
</g>
<!-- order&#45;&gt;db_o -->
<g id="edge9" class="edge">
<title>order&#45;&gt;db_o</title>
<path fill="none" stroke="#b8860b" stroke-width="1.2" d="M695.21,-209.88C742.81,-209.88 798.23,-209.88 842.15,-209.88"/>
<polygon fill="#b8860b" stroke="#b8860b" stroke-width="1.2" points="842.11,-213.38 852.11,-209.88 842.11,-206.38 842.11,-213.38"/>
<text xml:space="preserve" text-anchor="middle" x="774.86" y="-212.03" font-family="Times,serif" font-size="8.00">updates status</text>
</g>
</g>
</svg>
